<?xml version="1.0" ?><!DOCTYPE svg  PUBLIC '-//W3C//DTD SVG 1.1//EN'  'http://www.w3.org/Graphics/SVG/1.1/DTD/svg11.dtd'><svg enable-background="new 0 0 128 128" id="Слой_1" version="1.1" viewBox="0 0 128 128" xml:space="preserve" xmlns="http://www.w3.org/2000/svg" xmlns:xlink="http://www.w3.org/1999/xlink"><g><g><g><g><rect fill="#FF5722" height="36.9" transform="matrix(0.7071 0.7071 -0.7071 0.7071 56.4872 -2.235)" width="4" x="28.9" y="48.6"/></g><g><circle cx="11.9" cy="86.1" fill="#FF5722" r="1.7"/></g><g><path d="M64,34" fill="#FF5722"/></g></g><g opacity="0.15"><g><g><path d="M46.8,49.1h2H46.8z" fill="#FF5722"/></g><g><line fill="#FF5722" x1="64" x2="64" y1="34" y2="34"/></g></g></g><g opacity="0.3"><g><g><polygon fill="#FF5722" points="40.6,34 40.6,34 44.6,34      "/></g><g><line fill="#FF5722" x1="64" x2="64" y1="34" y2="34"/></g><g><rect fill="#FF5722" height="4" transform="matrix(0.707 0.7072 -0.7072 0.707 75.8479 -48.9992)" width="36.9" x="78.6" y="65"/><circle cx="116.1" cy="86.1" fill="#FF5722" r="1.7"/><path d="M123,79.3L96.1,52.4c-4-4-8.6-11.7-8.7-16.3l-4,0.1c0.1,6.4,6,15.1,9.9,19l26.9,26.9       c1.1,1.1,1.7,2.5,1.7,4s-0.6,3-1.7,4c-2.2,2.2-5.9,2.2-8.1,0L85.2,63.3c-2-2-5.3-4.5-8.9-6.5c0.8-2,1.7-3.6,2.8-4.7l-2.9-2.8       c-1.4,1.5-2.6,3.5-3.5,5.8c-2.3-0.9-4.5-1.6-6.5-1.6l-0.1,4c1.5,0,3.4,0.6,5.3,1.4c-1.1,3.9-1.7,8-1.7,10.9v38       c0,3.2-2.6,5.7-5.7,5.7s-5.7-2.6-5.7-5.7v-38c0-3.4-0.8-7.9-2-11.8l-3.8,1.2c1.1,3.5,1.8,7.6,1.8,10.6v38       c0,5.4,4.4,9.7,9.7,9.7s9.7-4.4,9.7-9.7v-38c0-2.7,0.5-6,1.3-9.1c2.8,1.6,5.5,3.6,7.3,5.5l27,26.8c1.9,1.9,4.4,2.8,6.9,2.8       s5-0.9,6.9-2.8c1.8-1.8,2.8-4.3,2.8-6.9C125.8,83.5,124.8,81.1,123,79.3z" fill="#FF5722"/><rect fill="#FF5722" height="36.9" width="4" x="62" y="62.3"/><circle cx="64" cy="107.7" fill="#FF5722" r="1.7"/></g></g></g></g><path d="M86.6,27.9l-0.1-0.5l-0.8-0.8l-3.3-11.4l-10.9-2.7l-1-1L70,11.4c-8.1-2.2-16.6,0.2-22.5,6l0,0l0,0   c0,0,0,0-0.1,0.1c-4.8,4.8-7.1,11.3-6.8,17.7V36c-0.1,4.6-4.7,12.3-8.7,16.3L5,79.2c-1.8,1.9-2.8,4.3-2.8,6.9s1,5.1,2.8,6.9   c1.9,1.9,4.4,2.8,6.9,2.8s4.9-0.9,6.8-2.8l26.9-26.9c4-4.1,11.7-8.6,16.3-8.7c0.7,0.1,1.4,0.1,2.1,0.1c6.3,0,12.1-2.4,16.6-6.9   C86.5,44.7,88.8,36,86.6,27.9z M70.5,16.3l8.6,2.2l2.5,8.7l-6.3,6.5l-8.8-2.2L64,22.8l2.5-2.5L70.5,16.3z M72.1,37l-1.9,1.9   c-5.7-0.8-10.3-5.4-11.1-11.1l1.8-1.8l2.5,8.8L72.1,37z M42.8,63.2L15.9,90.1c-2.2,2.2-5.9,2.2-8.1,0c-1.1-1-1.7-2.5-1.7-4   s0.6-2.9,1.7-4l26.9-27c2.5-2.5,5.8-7,7.9-11.5c1.1,2.6,2.7,5,4.8,7c2,2,4.4,3.6,6.9,4.8C49.7,57.5,45.3,60.7,42.8,63.2z    M77.7,47.7c-3.6,3.5-8.3,5.5-13.3,5.6L63,53.4c-4.8-0.2-9.4-2.2-12.7-5.7c-3.6-3.6-5.4-8.1-5.7-12.8l0.1-1.4   c0.1-4.4,1.6-8.6,4.4-11.9c0.4-0.5,0.8-0.9,1.2-1.4c4.3-4.3,10.2-6.3,16.1-5.5l-2.7,2.8L55,26.3l0.1,0.9   c0.6,8.4,7.4,15.2,15.8,15.8l0.9,0.1l4.9-4.9l0.7-0.8l5.8-5.8C84,37.4,82,43.5,77.7,47.7z" fill="#FF5722"/><g><path d="M72.2,27.9L72.2,27.9c-1-0.3-1.9-1.1-2.2-2.1l0,0c-0.3-1,0-2.1,0.7-2.9l0,0c0.7-0.8,1.8-1.1,2.9-0.8l0,0    c1,0.3,1.9,1.1,2.2,2.1l0,0c0.3,1,0,2.1-0.7,2.9l0,0C74.3,27.8,73.2,28.2,72.2,27.9z" fill="#FF5722"/></g></g></svg>
